<?xml version="1.0" encoding="utf-8"?>
<!-- Generator: Adobe Illustrator 19.1.0, SVG Export Plug-In . SVG Version: 6.00 Build 0)  -->
<svg version="1.1" id="Layer_1" xmlns="http://www.w3.org/2000/svg" xmlns:xlink="http://www.w3.org/1999/xlink" x="0px" y="0px"
	 viewBox="-49 141 479 503.8" style="enable-background:new -49 141 479 503.8;" xml:space="preserve">
<style type="text/css">
	.st0{fill:#1048A0;}
	.st1{font-family:'CourierNewPS-BoldMT';}
	.st2{font-size:36px;}
	.st3{fill:#FCFCFC;stroke:#1048A0;stroke-width:12;stroke-miterlimit:10;}
	.st4{fill:#FFFFFF;}
	.st5{fill:#FCFCFC;}
</style>
<g transform="translate(0.000000,512.000000) scale(0.100000,-0.100000)">
	<path class="st0" d="M3166.2,3053.2c-37.2,39.9-67.7,73.7-67.9,74.5c0,1.2,2.5,18.8,6,39.6c3,21,6,62.2,6.3,92.2l0.9,53.2
		c-135.4,125.2-282.4,246.8-460.3,303.8c-5.4-4.6-11.4-8.9-17.9-12.8c-18.3-10.7-40.3-15.9-62.5-16c38.1-17.3,80.6-42.5,101.3-61.6
		c43.9-40.3,69.2-82.7,88.5-147c27.8-90.9,20.9-167.7-22.6-249.5c-42-78.9-106.4-131.5-194-157.8c-87.4-27.1-170.1-19.6-249,22.4
		c-81.9,43.5-130.5,103.4-158.3,194.2c-20,64.1-22.7,113.3-8.9,171.3c8.9,39.3,53.2,121.4,81,151.2
		c69.9,75.1,183.6,113.6,286.3,99.5c-13.8,9.7-25.2,22.4-32.8,38.2c0,0-3.2,6.8-5.8,11.8c-3.3,2.7-7.1,7.1-9.3,9.9
		c-0.5,0.3-1.1,0.7-1.6,1c-19.1-15.1-44.1-24.5-75.3-24.5c-142.8,0-277.4,5.3-391.6-83.4c-12.3-9.6-25.6-17.4-39.3-23.3
		c-6-39.2-28.2-75.4-66.6-92.7c-9.9-19.7-25-36.3-43.5-48.4c-19.3-155.9-14.6-314.9,21.8-458l35.1-1.6l23.5-32.6
		c12.5-17.9,38.8-48.9,58.1-69.3l35.3-36.4l-12.3-94.1l-13-94.3l87-48.1l87.7-47.9l71.6,63.8l71.4,64.5l57.4-10.4
		c31.2-5.3,72.3-10.8,90.6-11.7l34.5-1.4l58.1-78.7l58.6-79l192.2,58.8l4.4,97l4.2,96.5l41.5,29.5c22.5,16.3,56,42.6,73.5,59
		l32.3,30l100.2-16.2l100-15.4l45.9,88.8l45.2,88.5L3166.2,3053.2z"/>
</g>
<g transform="translate(0.000000,512.000000) scale(0.100000,-0.100000)">
	<path class="st0" d="M4021.5,964.4l22.6,46.9c11.7,25.1,33.5,83.8,48.6,129l26.8,83.8l34.7,12.6c-1.9,162.5-8.7,326.6-33.5,486.7
		l-2,0.7l-23.5,72.9c-13.4,40.2-36,97.2-51.1,126.5l-26.8,54.4l22.1,46.6c-58,134.3-140,257-214.9,386.5l-25-11.8l-133.2-63.7
		l-49.4,25.1c-26.8,13.4-85.4,36-129,50.3l-80.4,25.1l-49.4,138.2l-48.6,137.4h-149.9c-148.3,0-150.8,0-157.5-18.4
		c-4.2-10.9-24.3-66.2-45.2-124s-40.2-111.4-43.6-118.9c-3.4-8.4-29.3-21.8-61.1-31.8c-31-10.1-87.9-33.5-127.3-51.9l-72-32.7
		l-135.7,64.5l-136.5,65.3L2276,2359c-57-57-103.9-106.4-103.9-109.7c0-4.2,28.5-65.3,62.8-137.4l62-129.8l-40.2-77.1
		c-22.6-42.7-49.4-100.5-59.5-129c-20.9-59.5-7.5-51.1-196.8-114.7l-108.9-36l-2.5-150.8l-1.7-151.6l141.5-47.7
		c77.9-26,144.9-51.9,149.1-57c4.2-5.9,12.6-25.1,18.4-43.6c5.9-18.4,29.3-73.7,53.6-124l42.7-89.6l-62-130.7l-62-129.8l108.9-108
		l108-108l132.3,63.7l131.5,62.8l73.7-37.7c40.2-20.9,97.2-46.1,127.3-57c30.2-10.1,55.3-19.3,57-20.1c0.8-0.8,24.3-65.3,51.1-143.2
		l49.4-141.5l149.9-2.5l150.8-1.7l50.3,144.1l49.4,144.9l62.8,21.8c34.3,11.7,93,37.7,130.7,56.1l68.7,34.3l131.5-62.8l132.3-62.8
		l214.4,214.4l-63.7,134L4021.5,964.4z M3508.1,1124.4c-97.2-98-212.7-146.6-347.6-146.6c-139.9,0-247.1,45.2-348.4,146.6
		c-72,71.2-110.6,134.8-133.2,222c-15.9,60.3-15.9,192.6,0,254.6c42.7,164.2,185.1,308.2,348.4,351.8
		c59.5,15.9,200.2,16.8,258.8,0.8c87.1-22.6,150.8-61.1,222-133.2c101.3-101.3,146.6-208.6,146.6-348.4
		C3654.7,1337.1,3606.1,1221.6,3508.1,1124.4z"/>
</g>
<path class="st0" d="M419.9,389.3c-0.1-4.4,0-14.5,0.2-22.5c0.4-20.7-1.7-30.6-10.7-49.9c-2.5-5.3-7.8-17.5-11.9-27.1
	s-9-20.2-10.9-23.5s-6.7-11.9-10.6-19c-19.6-35.5-22.5-39.4-40.9-54.5c-8-6.5-20.5-16.8-27.9-22.9c-18.5-15.2-28.6-20.1-48.6-23.6
	c-12.2-2.2-36.4-3-44-1.6c-7.4,1.4-16.8,5.9-21.8,10.5l-3.8,3.4l-3.7-3.3c-5.1-4.8-11.8-8.2-19.3-10c-7.1-1.6-24.2-1.8-37.4-0.4
	c-12.2,1.4-27.1,5.4-36,9.8c-4.9,2.4-12.6,7.7-20,13.8c-6.6,5.4-18.7,15.4-27,22.2c-20.4,16.6-23.5,20.6-39.8,50.1
	c-4.7,8.5-10.6,19.1-13.1,23.5s-7.4,14.5-10.7,22.5c-3.4,8-9.3,21.5-13.1,30c-9.4,20.5-11.2,29.1-10.8,49.5
	c0.4,23.3,0.4,28.2-0.5,40c-0.9,12.3,0.7,28,5.1,51c5.4,27.6,22.4,69.9,36.5,90.5c12.2,17.9,45.9,57.4,55.7,65.2
	c18.1,14.6,47.6,31.6,64.9,37.4c25.1,8.5,45.9,6.9,63.3-4.8l6.1-4l4.2,2.9c17.6,12.6,39.8,14.5,65.2,5.8c17.4-6,47.9-23.5,64.8-37.3
	c9.6-7.8,42.2-46,55.1-64.5c7.1-10.3,10.6-16.9,17.8-33.7c12.6-29.3,16.5-42,21-67.9C420.6,427.6,420.6,427.8,419.9,389.3z
	 M179.2,627.4c-3.7,8.2-13.6,12.4-29.8,12.4c-24.2,0-53.9-13.5-84.9-38.6c-7.3-5.9-12.7-11.7-16.6-17.8c-2.1-1.9-3.8-4.2-5.3-6.6
	c-3.6-2.7-6.4-6.8-8.6-10.6c-0.8-1-1.5-2-2.2-3c-1.6-1.3-3-2.9-4.3-4.5c0,0.1-0.1,0.1-0.1,0.2c-1.7,1.7-20.2-25.5-28.7-42.2
	c-4.3-8.5-7-14.6-8.7-20c-2.4-4.5-3.9-9.5-4.8-14.6c-1.6-3.4-2.7-7-3.6-10.8c-1.7-4.7-2.7-9.6-3.2-14.6c-0.5,0.1-0.8,0.1-0.8,0.1
	c-0.2-0.2-1.3-5.7-2.4-12.3c-2.5-14.9-3.7-28.7-2.5-28.7h0.1c-0.1-1.3-0.1-2.7-0.1-4c-0.1-4,0.2-8.4,0.8-12.8h-0.4v-8.8
	c0-4.9-0.3-11.9-0.6-15.5l-0.7-6.6l0.6-0.1c-0.2-0.7-0.3-1.5-0.3-2.2c0-0.5,0-1,0-1.5c-0.1-1.6,0.3-3.2,1-4.7c0-0.2,0-0.4,0-0.6
	c0-0.1,0-0.2,0-0.2c-0.1-0.8,0-1.6,0.1-2.3c0-0.2-0.1-0.4-0.1-0.7c-0.1-1.5,0.1-2.9,0.6-4.3c0-1.5,0.3-3.9,0.9-7.2
	c2-10.5,4-16.2,7.5-21.8c0.5-0.7,1-1.4,1.5-2.1c0.7-1.7,1.4-3.3,2.2-4.9c1.1-2.1,2.5-4.3,4.2-6.3c1.2-4.6,2.7-8.9,4.8-12.7
	c0.2-0.4,0.4-0.7,0.6-1.1c1.9-8.2,9.8-26.2,12.7-27.4c0.5-1.2,1.1-2.4,1.7-3.5c1-1.9,2.4-4,3.9-6c0.9-2.5,1.9-4.9,3.1-7
	c0.4-0.8,0.9-1.5,1.3-2.3c2.7-7.3,17.3-28.9,18.9-28c0,0,0,0,0.1,0.1c1.2-1.5,2.4-3,3.9-4.2c1.6-1.8,3.5-3.4,5.6-4.6
	c1.7-2,3.8-3.8,6-5c0.6-0.7,1.2-1.3,1.8-1.9c3.9-5.2,16.2-16.2,22.8-20.8c2.4-2.6,5.3-4.7,8.6-5.6c2.2-1.9,4.6-3.5,7.4-4.1
	c1.3-1,2.8-1.9,4.3-2.5c2.1-1.7,4.4-3,6.9-3.6c4.8-3,11.3-5.3,19.1-6.8c8.6-1.6,29.7-1.9,38.4-0.5c8.1,1.4,13.4,4.1,16,8.3
	c2.9,4.7,4.5,15.9,3.6,25.2l-0.6,6.6c0.1,1.8,0.1,3.5,0.2,5.3c0.2,2.6,0.3,5.1,0.4,7.6c0,2,0,4.1-0.1,6.2c0.1,1.3,0.1,2.5,0.1,3.8
	c0,2.1,0,4.3-0.2,6.6c0,2.3,0,4.8,0,7.4c0,2.5,0,5,0,7.5c0,1.2,0,2.3,0,3.5c0,2.1,0,4.3,0,6.5c0,0.8,0,1.7,0,2.5c0,2.8,0,5.7,0,8.5
	c0,1.8,0,3.6,0,5.5s0,3.7,0,5.6c0,0.5,0,0.9,0,1.4c0,2.2,0,4.3,0,6.5c0,0.8,0,1.7,0,2.5c0,2.8,0,5.7,0,8.5c0,1.8,0,3.7,0,5.5
	c0,4.6,0,9.2-0.1,13.8c0,0.1,0,0.2,0,0.3c1,10.6,1.1,21.3,1.1,32c0,7.1-0.1,14.4-0.4,21.6c0,0.8,0,1.6,0,2.4
	c-0.1,9.1-0.2,14-0.6,17.3c0,1.9,0,3.8,0,5.7c0,2.7,0,5.3,0,8c0,1.3,0,2.6,0,4c0,1.6,0,3.1,0,4.7c0,0.1,0,0.2,0,0.3
	c0,4.6,0,9.3-0.1,14l0.2,2.8c1.3,17.5,1.3,25,0,26.3l0,0c0.1,1.6,0.1,3.3,0.2,4.9c0.1,2.2,0,4.6-0.2,7c0.1,1.7,0.2,3.4,0.2,5
	c0.1,4.2-0.2,8.9-1,13.5c0.4,4.4,0.8,10.1,1,16.1l0.7,18.2l-0.4,0.3c0.4,6.9,0.4,13.8,0.5,20.7c0.4,3.3,0.2,12.6-0.1,19.9
	c0.1,4.8,0.1,9.5,0.2,14.3c0,6.1,0,12.3-0.3,18.5c0.2,0.8,0.3,1.7,0.5,2.6C183.5,603.4,181.4,622.4,179.2,627.4z M406.5,424.3
	c0,5.5-0.8,14.3-1.8,19.5c-1.3,7.2-1.8,10.6-2.7,11.7c-1.2,5.8-3,11.5-5.5,16.2c-0.6,2.8-1.4,5.5-2.4,8.1
	c-1.2,6.2-3.1,12.2-5.8,17.2c-0.2,0.4-0.4,0.8-0.7,1.2c-5.2,18.7-16.4,39.3-30.3,54.5l-1.9,2c-0.1,0.1-0.1,0.2-0.2,0.3
	c-1.5,2.7-3.5,5.7-5.9,8.3c-1.6,2.4-3.5,4.7-5.7,6.6c-0.4,0.6-0.8,1.2-1.3,1.9c-1.1,1.8-2.3,3.5-3.7,5.2c-2,3.1-4.6,6.2-7.7,8.3
	c-8.7,14.1-24.8,27.5-46.9,38.6c-26.5,13.3-53.4,18.6-69.4,13.5c-8-2.5-15.6-9.9-17.3-16.7c-1.6-6-1.5-21.9-0.2-27.9
	c-0.2-5.6-0.2-11.3-0.2-16.9c0-4.1,0-8.3,0.1-12.5l-0.1-1.4c-0.1-2.4-0.2-5.1-0.2-7.7c-0.7-9.4-0.8-19-0.8-28.4c0-2.9,0-5.8,0-8.8
	c-0.5-5.4-0.5-14.1,0-21.4c0-1.3,0-2.6,0-3.8c0-10.2,0.2-20.5,1-30.7c0-1.4,0-2.9,0-4.3c0-5.7,0-11.5,0.2-17.2c0-0.7,0-1.5,0-2.3
	c0-2.4,0-4.6,0.1-6.7c-0.2-6.3-0.3-12.5-0.3-18.8c0-9.7,0.2-19.6,0.9-29.3c-0.8-9.9-0.9-19.8-0.9-29.7c0-4,0-8.1,0.1-12.2
	c-0.1-3.9-0.1-7.9-0.1-11.8c0-5.2,0-10.4,0.2-15.6c-0.1-5.1-0.2-10.3-0.2-15.4c0-3.5,0-7.1,0.1-10.7c0-3.1-0.1-6.2-0.1-9.3
	c0-0.9,0-1.8,0-2.7c-0.5-3.4-0.7-7.1-0.8-8.1c-1.1-11-1.2-22.2-1.2-33.2s0.2-22.3,1.2-33.2c0,0.5,0.1-1.9,0.4-4.7
	c-1.1-7.2,0.5-16.1,4.4-23.6c3.5-6.9,8.3-10,18.2-11.7c6-1,26.3-0.6,35.3,0.8c7.3,1.1,12.6,2.6,16.5,4.8c2.6,0.6,4.9,1.8,6.8,3.5
	c1.2,0.4,2.4,1,3.5,1.8c1.9,0.6,3.6,1.6,5.2,2.9c0.2,0.1,0.5,0.3,0.7,0.4c2.6,1,4.8,2.7,6.7,4.8c0.1,0.1,0.2,0.1,0.3,0.2
	c2.4,0.9,4.4,2.5,6.2,4.4c4,1.9,14.3,11.2,19.8,17.6c1.3,0.8,2.5,1.7,3.6,2.8c1.8,1,3.5,2.4,5,4c1.5,0.8,2.8,1.8,4,3
	c3.5,1.9,6.3,5.2,8.5,8.6c1.4,1.3,2.7,2.8,3.9,4.4c0.1,0.1,0.1,0.2,0.2,0.2c3.1,3.6,14.8,23.2,16.3,27.2c0.1,0.3,0.1,0.7-0.1,1.1
	c1.1,1.5,2,3.1,2.9,4.6c0.9,1.6,1.7,3.2,2.4,4.9c0.9,1.3,1.7,2.6,2.5,3.9c1.6,2,2.9,4.1,4.1,6.2c0.9,1.5,1.7,3.1,2.3,4.8
	c2.4,3.9,5.4,10,7.3,14.6c0.1,0.2,0.2,0.4,0.4,0.6c1.5,2.5,2.7,5.3,3.6,8.1c1.4,2.7,2.6,5.5,3.4,8.4c0.3,0.9,0.7,1.9,1,2.8
	c0.3,0.6,0.7,1.1,1,1.6c1.5,2.6,2.7,5.4,3.7,8.4c3,4.1,4.7,9,7.4,20.7c1.4,6.2,1.9,8.9,1.7,10.1c0.9,5.4,1.3,10.9,1.4,16.1
	c0.1,3.3-0.1,6.9-0.5,10.5c-0.1,3.2-0.3,6.9-0.4,10c0.6,4.5,0.9,9.1,1,13.5c0,1.6,0,3.3-0.1,4.9c0,0.7,0.1,1.4,0.1,2.1
	c0,1.5,0,3,0,4.5h0.1L406.5,424.3z"/>
<text transform="matrix(1 0 0 1 95 186.8362)" class="st0 st1 st2">0100</text>
<text transform="matrix(1 0 0 1 53 216.8362)" class="st0 st1 st2">111101</text>
<text transform="matrix(1 0 0 1 31 247.8362)" class="st0 st1 st2">1100000</text>
<text transform="matrix(1 0 0 1 10 277.8362)" class="st0 st1 st2">01100101</text>
<text transform="matrix(1 0 0 1 -13 309.8362)" class="st0 st1 st2">011011100</text>
<text transform="matrix(1 0 0 1 -12 339.8362)" class="st0 st1 st2">101001101</text>
<text transform="matrix(1 0 0 1 -33 373.8362)" class="st0 st1 st2">1011110111</text>
<text transform="matrix(1 0 0 1 -34 406.797)" class="st0 st1 st2">0101011100</text>
<text transform="matrix(1 0 0 1 -32.6934 436.5423)" class="st0 st1 st2">1001100011</text>
<text transform="matrix(1 0 0 1 -13 469.2699)" class="st0 st1 st2">011001010</text>
<text transform="matrix(1 0 0 1 -12 503.8362)" class="st0 st1 st2">100101101</text>
<text transform="matrix(1 0 0 1 8 534.8362)" class="st0 st1 st2">10110100</text>
<text transform="matrix(1 0 0 1 31.4937 566.8069)" class="st0 st1 st2">1011001</text>
<text transform="matrix(1 0 0 1 54.8921 597.6693)" class="st0 st1 st2">000111</text>
<text transform="matrix(1 0 0 1 97 630.8362)" class="st0 st1 st2">0011</text>
<g transform="translate(0.000000,512.000000) scale(0.100000,-0.100000)">
	<path class="st0" d="M1794.2-524.3c-3.3-11.3-6.3-22.6-9-34c-1.2-4.9-2.2-9.9-3.3-14.9c1.1-0.2,2.2-0.4,3.3-0.6
		c1.7-0.1,5.8-0.4,9.8-0.7C1794.9-557.9,1794.6-541.2,1794.2-524.3z"/>
	<path class="st0" d="M3562.9-377.7l-106.5,39.9l-18.6,57.9c-10.6,31.9-28.6,77.2-40.6,100.5l-21.3,43.3l51.2,107.8l51.1,106.2
		c-20.6,17.2-39.2,36.5-55.7,57.7l-28.7,28.5l-85.2,84.5l-105.8-50L3097,148.1l-39.3,20c-21.3,10.6-67.9,28.6-102.5,39.9l-63.9,20
		L2852,337.8L2813.4,447h-119.1c-117.8,0-119.8,0-125.1-14.6c-3.3-8.7-19.3-52.6-35.9-98.5c-16.6-45.9-31.9-88.5-34.6-94.5
		c-2.7-6.7-23.3-17.3-48.6-25.3c-24.6-8-69.9-26.6-101.2-41.3l-57.2-26L2183.9,198l-94.3,45.1c7.1-30.6,2.9-64.2-11.7-94.6
		c-1.8-3.9-3.1-6.6-3.9-8.4c-1.3-3.4-2.5-6.8-3.7-10.2c-13.3-44.2-4.9-108.3-12.6-156.8c-4.6-28.9-13.2-57.1-24.6-84.1
		c-0.6-25.5-0.7-51-0.6-76.3c0.7-130.5,12-260.6,12.4-391.1c0-12.5-1.6-23.8-4.3-34.3c28-24.5,47.4-62.2,44.3-95.7
		c-4.6-49.2-7.2-98.7-3.5-148.1c0.1-1.8,1.6-14.7,2.3-21.1c1.3-6.2,4-20.4,3.9-19.9c2.2-9.8,5.1-19.4,7.7-29.1
		c1.4-5.1,4.7-14.5,4.8-15.6c7-15.3,15.7-30.2,25.4-43.7c-12.6,17.6,29.4-27.3,25.6-24.5c23.8-18.4,56-29,96.7-39.7
		c89.6-23.5,180.2-46.8,262-91.9c36-19.9,69-44.1,98.7-71.8c20.1,24,50.6,40.2,91.4,40.2c46.8,0,79.8-21.1,99.4-51
		c78.1,46.5,153.8,97.1,230.2,146.4c3,8,7,15.6,12.4,22.7c66.7,87.6,148.7,151.2,238,214.6c68.9,49,134.9,95.1,172,165.4
		c16,30.4,45.3,49.9,77.5,57.5c7.6,13.6,15.1,27.3,22.1,41.2c7.3,14.2,14,28.7,20.6,43.2c-5.3-11,10.2,26.8,12.6,34.3
		c4,12.5,6.5,25.4,9.9,38c0,4.2,0.3,8.5,0.1,12.6c-0.7,21.2,3.1,39.6,10.1,55.2L3562.9-377.7z M2971.2-814.3
		c-77.2-77.9-169.1-116.5-276.2-116.5c-111.1,0-196.3,35.9-276.9,116.5c-57.2,56.6-87.9,107.2-105.8,176.4
		c-12.6,47.9-12.6,153.1,0,202.3c33.9,130.4,147.1,244.9,276.9,279.5c47.3,12.6,159.1,13.3,205.7,0.7
		c69.2-18,119.8-48.6,176.4-105.8c80.5-80.5,116.5-165.7,116.5-276.9C3087.7-645.3,3049.1-737.1,2971.2-814.3z"/>
</g>
<g>
	<polygon class="st3" points="100.2,628.6 191.6,383.1 283.1,628.6 	"/>
	<rect x="87" y="640" class="st4" width="212" height="16.4"/>
	<path class="st3" d="M191.6,474.5L191.6,474.5c-39.8,0-72-32.2-72-72l0,0c0-39.8,32.2-72,72-72l0,0c39.8,0,72,32.2,72,72l0,0
		C263.6,442.3,231.4,474.5,191.6,474.5z"/>
	<polygon class="st5" points="97.7,644.8 192,403.8 286.3,644.8 	"/>
</g>
</svg>
